<svg width="33" height="29.648" viewBox="0 0 33 29.648" xmlns="http://www.w3.org/2000/svg" preserveAspectRatio="xMidYMid"><path d="m20.365 18.367-.633 1.099a1.07 1.07 0 0 1-.926.535h-4.849a1.07 1.07 0 0 1-.926-.535l-.633-1.099zm1.772-3.077-1.116 1.938h-9.279l-1.116-1.938zm-1.075-3.009 1.077 1.87H10.624l1.077-1.87zm-2.256-2.844a1.07 1.07 0 0 1 .926.535l.674 1.17h-8.049l.674-1.17a1.07 1.07 0 0 1 .926-.535z" fill="#00435B"/><path d="M6.899 8.927c-.537-2.605-.653-4.602-.305-6.053.207-.863.584-1.567 1.158-2.074C8.358.264 9.124.001 9.985.001c1.42 0 2.914.648 4.509 1.878a21 21 0 0 1 2.028 1.815q.084-.108.189-.202C18.694 1.725 20.364.626 21.792.203c.849-.252 1.647-.276 2.373-.031.766.258 1.377.791 1.808 1.538.711 1.232.898 2.852.633 4.852a21 21 0 0 1-.554 2.665q.147.018.295.066c2.516.834 4.298 1.731 5.377 2.756.642.61 1.061 1.289 1.213 2.04.16.793.004 1.589-.426 2.335-.71 1.231-2.015 2.201-3.874 2.97q-1.119.463-2.535.84.065.145.099.309c.537 2.605.652 4.602.305 6.053-.207.863-.584 1.567-1.158 2.074-.606.536-1.372.799-2.233.799-1.42 0-2.914-.648-4.509-1.878a21 21 0 0 1-2.051-1.838 1.5 1.5 0 0 1-.269.315c-1.983 1.768-3.653 2.866-5.081 3.289-.849.252-1.647.276-2.373.031-.766-.258-1.377-.791-1.808-1.538-.711-1.232-.898-2.852-.633-4.852q.168-1.266.582-2.77a1.5 1.5 0 0 1-.324-.069c-2.516-.834-4.298-1.731-5.377-2.756-.642-.61-1.061-1.289-1.213-2.04-.16-.793-.004-1.589.426-2.335.71-1.231 2.015-2.201 3.874-2.97a20.5 20.5 0 0 1 2.619-.862 1.6 1.6 0 0 1-.082-.268" fill="#002B3B"/><path d="M24.447 20.797a.475.475 0 0 1 .546.362l.003.014.027.139q1.297 6.821-1.828 6.821-3.058 0-7.785-5.821a.475.475 0 0 1 .358-.774h.015l.166.001q1.989.011 3.868-.139 2.217-.177 4.631-.604m-14.31-3.437.008.014.083.145q1.001 1.74 2.086 3.303 1.278 1.841 2.873 3.727a.475.475 0 0 1-.04.655l-.012.011-.107.092q-5.28 4.524-6.863 1.806-1.55-2.66 1.124-9.674a.475.475 0 0 1 .848-.08m16.095-6.71.014.005.133.046q6.517 2.267 4.952 4.983-1.531 2.656-8.9 3.868a.475.475 0 0 1-.486-.709q1.055-1.795 1.901-3.573.959-2.016 1.8-4.327a.475.475 0 0 1 .571-.296zm-15.347-.76a.475.475 0 0 1 .169.65q-1.056 1.795-1.901 3.573-.959 2.016-1.8 4.327a.475.475 0 0 1-.586.292l-.014-.005-.133-.046q-6.518-2.266-4.953-4.982 1.531-2.656 8.9-3.868a.48.48 0 0 1 .318.059m13.948-7.444q1.55 2.66-1.124 9.674a.475.475 0 0 1-.848.08l-.008-.014-.083-.145q-1.001-1.74-2.086-3.303-1.278-1.841-2.873-3.727a.475.475 0 0 1 .04-.655l.012-.011.107-.092q5.28-4.524 6.863-1.806m-14.85-1.08q3.058 0 7.785 5.82a.475.475 0 0 1-.358.774h-.015l-.166-.001q-1.989-.011-3.868.139-2.217.177-4.631.604a.475.475 0 0 1-.546-.362l-.003-.015-.027-.138Q6.858 1.365 9.984 1.365" fill="#FF4154"/><path d="M14.347 9.497h4.07a1.66 1.66 0 0 1 1.441.835l2.044 3.561a1.66 1.66 0 0 1 0 1.654l-2.044 3.561a1.66 1.66 0 0 1-1.441.835h-4.07a1.66 1.66 0 0 1-1.441-.835l-2.044-3.561a1.66 1.66 0 0 1 0-1.654l2.044-3.561a1.66 1.66 0 0 1 1.442-.835m3.45 1.075c.596 0 1.146.319 1.442.835l1.425 2.486a1.66 1.66 0 0 1 0 1.653l-1.425 2.486a1.66 1.66 0 0 1-1.442.835h-2.829a1.66 1.66 0 0 1-1.442-.835l-1.425-2.486a1.66 1.66 0 0 1 0-1.653l1.425-2.486a1.66 1.66 0 0 1 1.442-.835zm-.669 1.176h-1.492a1.66 1.66 0 0 0-1.441.834l-.753 1.311a1.66 1.66 0 0 0 0 1.656l.753 1.311a1.66 1.66 0 0 0 1.441.834h1.492c.595 0 1.145-.318 1.441-.834l.753-1.311a1.66 1.66 0 0 0 0-1.656l-.753-1.311a1.66 1.66 0 0 0-1.441-.834m-.644 1.125a1.66 1.66 0 0 1 1.44.833l.107.186a1.66 1.66 0 0 1 0 1.658l-.107.186a1.66 1.66 0 0 1-1.44.833h-.205a1.66 1.66 0 0 1-1.44-.833l-.107-.186a1.66 1.66 0 0 1 0-1.658l.107-.186a1.66 1.66 0 0 1 1.44-.833zm-.102 1.108a.74.74 0 0 0-.641.369.74.74 0 0 0 0 .739.74.74 0 0 0 1.281 0 .74.74 0 0 0 0-.739.74.74 0 0 0-.64-.369m-5.995.739h1.33" fill="#FFD94C"/></svg>