<?xml version="1.0" encoding="UTF-8" standalone="no"?>
<!-- Generator: Adobe Illustrator 24.3.0, SVG Export Plug-In . SVG Version: 6.00 Build 0)  -->

<svg
   version="1.1"
   id="Layer_1"
   x="0px"
   y="0px"
   viewBox="0 0 102.33968 115.1"
   xml:space="preserve"
   sodipodi:docname="UNFLogo.svg"
   width="102.33968"
   height="115.1"
   inkscape:version="1.1.2 (b8e25be8, 2022-02-05)"
   xmlns:inkscape="http://www.inkscape.org/namespaces/inkscape"
   xmlns:sodipodi="http://sodipodi.sourceforge.net/DTD/sodipodi-0.dtd"
   xmlns="http://www.w3.org/2000/svg"
   xmlns:svg="http://www.w3.org/2000/svg"><defs
   id="defs90">
	
	

		
		
	
		
		
	</defs><sodipodi:namedview
   id="namedview88"
   pagecolor="#ffffff"
   bordercolor="#666666"
   borderopacity="1.0"
   inkscape:pageshadow="2"
   inkscape:pageopacity="0.0"
   inkscape:pagecheckerboard="0"
   showgrid="false"
   inkscape:zoom="3.8877551"
   inkscape:cx="181.72441"
   inkscape:cy="52.729659"
   inkscape:window-width="2048"
   inkscape:window-height="1280"
   inkscape:window-x="1607"
   inkscape:window-y="1543"
   inkscape:window-maximized="0"
   inkscape:current-layer="Layer_1" />
<style
   type="text/css"
   id="style9">
	.st0{fill:#FFFFFF;}
</style>
<g
   id="g17"
   style="fill:#ffffff"
   transform="scale(1.0023475,1)">
			<path
   class="st0"
   d="m 51.9,33.2 c -2.3,0.2 -5.2,-1.9 -8,-5.1 2.7,8.7 14.8,13.7 17.3,15.8 -4.9,-9.2 -3.6,-13.4 -6.7,-16.2 -1.1,-1 -8.9,-10.1 -10.3,-17.4 -1,6.5 3.7,13.9 6.1,17 C 47,25.8 43.8,20.9 41.6,16.5 41.1,19.1 47,30.8 51.9,33.2 Z"
   id="path11"
   style="fill:#ffffff" />
			<path
   class="st0"
   d="m 75.3,76 c 2.9,0.7 3.5,4.2 3.5,6.6 V 105 c 0,2.6 0.4,7 -2.6,8 v 0.2 H 87.3 V 113 c -2.9,-1.1 -2.5,-5.4 -2.5,-8 V 94.8 h 4.3 c 1.8,0 8.6,-0.1 9.5,1.6 h 0.2 v -6.6 h -0.2 c -0.7,0.4 -3.8,0.4 -4.7,0.4 h -9.2 v -11 c 1.9,-0.4 3.9,-0.4 6,-0.4 2.7,0 9.4,0.2 11.2,2.3 h 0.2 V 74.3 H 102 c -0.8,0.4 -1.8,0.3 -2.8,0.3 H 75.7 v 0 H 64.5 v 0.2 c 3.1,1.8 3,4.1 3,7.4 v 22.2 L 46.1,77.4 45.3,76.2 C 44.9,75.7 44.7,75.4 44.4,74.7 V 74.6 H 25.1 v 0.2 c 2.9,1.1 2.6,5.4 2.6,8 v 17.6 c 0,2.1 0.1,3.6 -1.2,5.3 -1.9,2.8 -5.3,4.1 -8.6,4.1 -6,0 -9.3,-3.6 -9.3,-11.4 V 82.8 c 0,-2.6 -0.4,-6.9 2.6,-8 V 74.6 H 0 v 0.2 c 3,1.1 2.6,5.4 2.6,8 v 15.6 c 0,4.2 -0.1,8.1 3,11.5 2.6,2.9 6.7,4.1 10.6,4.1 10.3,0 15.7,-6.1 15.7,-13.3 0,-1.2 0.1,-3.9 0.1,-5.1 V 82.9 c 0,-2.7 0.7,-6.2 3.5,-6.9 2.9,0.7 3.5,4.2 3.5,6.6 v 22.9 c 0,3.3 0,5.6 -3.1,7.4 v 0.2 H 46.3 V 113 c -3.1,-1.8 -3,-4.2 -3,-7.4 V 82.9 l 20.1,25.5 c 2.6,3.3 4.4,5.3 8.5,6.7 0,0 0,-30.5 0,-32.4 -0.1,-2.5 0.5,-6 3.4,-6.7 z"
   id="path13"
   style="fill:#ffffff" />
			<path
   class="st0"
   d="M 68.4,55 C 68.8,51.1 61.2,46.2 50.5,40.4 39.8,34.6 33.1,27.5 30.4,24.9 28.6,23.2 15.1,17.7 8.1,0 c 2.6,19.6 13.5,28.4 18,31.4 -3.5,-0.5 -7.2,-1 -15.3,-8.1 5.7,9.5 10.2,14.5 21.5,19 -3.2,0.5 -7.9,-0.1 -12.7,-1.8 4.1,3.9 17.1,8.7 26.8,10.2 -1.5,4.7 -13.9,14.1 -14,15.1 5.9,0.2 8.5,-1.7 9.2,-1.5 0.2,0.8 0.1,2.4 0.6,2.8 1.7,-0.1 6,-2.4 6.4,-3.2 0.4,0.2 1.9,2.8 2.8,2.4 0.7,-0.7 2.2,-5.3 2.6,-6.6 0.1,-0.4 0.3,-1 0.4,-1.1 l 2.2,4.2 c 0,0 4.2,2.7 5,3.3 -0.8,0.5 -1.4,1.3 -0.3,2.2 -0.6,-0.8 0.2,-1.4 0.8,-1.8 0.6,-0.2 1.8,-0.5 2.2,1 0.1,-1 -0.2,-1.4 -0.5,-1.7 0.5,-0.2 2.3,-0.9 2.4,0.4 0.1,-0.8 -0.2,-1.2 -0.6,-1.4 0.5,-0.2 1,-0.2 1.2,0.1 C 66.6,63.8 64.2,64.7 63.5,65 62.6,64 60,61.1 60,61.1 l 0.1,-6.6 c 1,0.1 2.4,0.4 3.2,0.6 3,1 5.1,2.1 4.1,3 1.9,-0.5 1.6,-2.3 1,-3.1 z"
   id="path15"
   style="fill:#ffffff" />
		</g>
</svg>
