<svg xmlns="http://www.w3.org/2000/svg" version="1.1" xmlns:xlink="http://www.w3.org/1999/xlink" xmlns:svgjs="http://svgjs.dev/svgjs" width="2000" height="3503" viewBox="0 0 2000 3503"><g transform="matrix(1,0,0,1,-1.3802051779638305,1.4182186234816072)"><svg viewBox="0 0 141 247" data-background-color="#ffffff" preserveAspectRatio="xMidYMid meet" height="3503" width="2000" xmlns="http://www.w3.org/2000/svg" xmlns:xlink="http://www.w3.org/1999/xlink"><g id="tight-bounds" transform="matrix(1,0,0,1,0.09730446504644874,-0.09999999999999432)"><svg viewBox="0 0 140.8053910699071 247.2" height="247.2" width="140.8053910699071"><g><svg viewBox="0 0 211.20273600000002 370.7906064" height="247.2" width="140.8053910699071"><g><svg viewBox="0 0 211.20273600000002 370.7906064" height="370.7906064" width="211.20273600000002"><g id="textblocktransform"><svg viewBox="0 0 211.20273600000002 370.7906064" height="370.7906064" width="211.20273600000002" id="textblock"><g><rect width="211.20273600000002" height="247.2" fill="none" stroke-width="9.018103199999999" stroke="#ffffff" data-fill-palette-color="none" data-stroke-palette-color="tertiary"></rect><rect width="211.20273600000002" height="123.5906064" y="247.2" fill="#ffffff" data-fill-palette-color="tertiary"></rect></g><g><svg viewBox="0 0 211.20273600000002 247.2" height="247.2" width="211.20273600000002"><g transform="matrix(1,0,0,1,23.607599999999998,23.607599999999998)"><svg width="163.98753600000003" viewBox="0.75 -35 28.700000762939453 35" height="199.9848" data-palette-color="#152232"><path d="M25.85 0L21.35 0Q18 0 15.4-1.43 12.8-2.85 11.3-5.33 9.8-7.8 9.8-10.95L9.8-10.95 9.8-26.55 0.75-26.55 0.75-35 29.45-35 29.45-26.55 20.6-26.55 20.6-10.4Q20.6-9.6 21.15-9.03 21.7-8.45 22.5-8.45L22.5-8.45 25.85-8.45 25.85 0Z" opacity="1" transform="matrix(1,0,0,1,0,0)" fill="#ffffff" class="wordmark-text-0" data-fill-palette-color="primary" id="text-0"></path></svg></g></svg></g></svg></g></svg></g><g></g></svg></g><defs></defs></svg><rect width="140.8053910699071" height="247.2" fill="none" stroke="none" visibility="hidden"></rect></g></svg></g></svg>